<mxfile host="app.diagrams.net" modified="2023-03-06T15:57:58.113Z" agent="5.0 (Windows)" etag="L0dd3E5XtyJP5aeQb-Lx" version="21.0.2" type="github">
  <diagram name="Page-1" id="M2xgEyWC5AHFK9O_ZeeU">
    <mxGraphModel dx="1434" dy="746" grid="1" gridSize="10" guides="1" tooltips="1" connect="1" arrows="1" fold="1" page="1" pageScale="1" pageWidth="850" pageHeight="1100" math="0" shadow="0">
      <root>
        <mxCell id="0" />
        <mxCell id="1" parent="0" />
        <mxCell id="SYluSCDROc4D1eWOvSDa-1" value="" style="aspect=fixed;html=1;points=[];align=center;image;fontSize=12;image=img/lib/azure2/compute/VM_Scale_Sets.svg;" vertex="1" parent="1">
          <mxGeometry x="210" y="320" width="68" height="68" as="geometry" />
        </mxCell>
        <mxCell id="SYluSCDROc4D1eWOvSDa-4" value="pve" style="text;html=1;align=center;verticalAlign=middle;resizable=0;points=[];autosize=1;strokeColor=none;fillColor=none;" vertex="1" parent="1">
          <mxGeometry x="224" y="410" width="40" height="30" as="geometry" />
        </mxCell>
        <mxCell id="SYluSCDROc4D1eWOvSDa-5" value="" style="sketch=0;aspect=fixed;html=1;points=[];align=center;image;fontSize=12;image=img/lib/mscae/VM_Linux_Non_Azure.svg;" vertex="1" parent="1">
          <mxGeometry x="330" y="280" width="50" height="46" as="geometry" />
        </mxCell>
        <mxCell id="SYluSCDROc4D1eWOvSDa-6" value="openEuler" style="text;html=1;align=center;verticalAlign=middle;resizable=0;points=[];autosize=1;strokeColor=none;fillColor=none;" vertex="1" parent="1">
          <mxGeometry x="315" y="326" width="80" height="30" as="geometry" />
        </mxCell>
      </root>
    </mxGraphModel>
  </diagram>
</mxfile>
